<svg width="206" height="77" viewBox="0 0 206 77" fill="none" xmlns="http://www.w3.org/2000/svg">
<path d="M1.18594 10.2295L11.128 35.5532L15.661 23.2294L20.3017 35.5532L30.2437 10.2295H24.8655L20.3017 21.954L15.7225 10.2295L11.128 21.954L6.5488 10.2295H1.18594ZM32.4104 10.168V35.0307H47.3464V30.0828H37.389V25.0887H44.8571V20.1254H37.389V15.1313H47.3464V10.168H32.4104ZM63.2967 17.0214C63.2967 15.2082 62.6359 13.6254 61.3298 12.3039C59.9622 10.9209 58.318 10.2448 56.3972 10.2448H54.6762L49.4977 10.2295V35H58.7022C60.8381 35 62.6667 34.2317 64.1726 32.695C65.6785 31.1891 66.4314 29.3452 66.4314 27.1939C66.4314 25.058 65.6785 23.2294 64.1726 21.7081C63.6962 21.2471 62.8664 20.74 62.2672 20.4481C62.7128 19.6183 63.2967 18.2046 63.2967 17.0214ZM58.6868 30.1442H55.4291L54.4457 30.1596V24.1514C55.9362 24.1514 57.227 24.0745 58.6868 24.1667C60.2234 24.2589 61.5603 25.5497 61.5603 27.1939C61.5603 28.8227 60.3156 30.1442 58.6868 30.1442ZM58.487 17.2058C58.487 18.4658 57.4882 19.3571 56.305 19.48C55.506 19.5415 54.8913 19.5876 54.4457 19.6029V15.0699H56.3972C57.5651 15.0699 58.487 16.0687 58.487 17.2058ZM68.5827 35H73.5614V27.5627H77.2801C79.6619 27.5627 81.7056 26.7175 83.4266 25.0272C85.1323 23.3677 85.9928 21.3393 85.9928 18.9114C85.9928 16.5143 85.1323 14.4706 83.4266 12.7649C81.7363 11.0746 79.6772 10.2295 77.2801 10.2295H68.5827V27.5627V35ZM81.0141 18.9114C81.0141 20.9398 79.3084 22.6455 77.2801 22.6455L73.5614 22.6301V15.1621H77.2801C79.3084 15.1621 81.0141 16.8984 81.0141 18.9114ZM88.1594 35H93.1381V24.0438L100.253 35H106.338L100.575 26.0261C101.989 25.4729 102.681 24.9658 103.541 23.7365C104.586 22.2613 105.109 20.6939 105.109 19.019V18.3736C105.109 15.6384 104.233 14.2708 102.727 12.7495C101.221 11.2744 98.9927 10.2295 96.2421 10.2295H88.1594V35ZM96.7185 22.0154H95.0589V22.0001H93.1381V15.1621H95.9348C97.1334 15.1621 98.3473 15.5308 99.0081 16.1455C99.6535 16.837 99.9915 17.636 99.9915 18.5426C99.9915 20.4173 98.5317 22.0154 96.7185 22.0154ZM120.152 10.0297C116.695 10.0297 113.729 11.2744 111.27 13.733C108.812 16.2223 107.583 19.188 107.583 22.6301C107.583 26.1029 108.812 29.0532 111.27 31.5118C113.714 33.9397 116.679 35.169 120.152 35.169C123.61 35.169 126.575 33.9551 129.034 31.5118C131.493 29.0686 132.737 26.1029 132.737 22.6301C132.737 19.1727 131.493 16.207 129.034 13.733C126.56 11.2744 123.594 10.0297 120.152 10.0297ZM120.137 15.0545C122.211 15.0545 123.978 15.7921 125.454 17.2672C126.944 18.7578 127.682 20.5403 127.682 22.6147C127.682 24.7046 126.944 26.4717 125.454 27.9468C123.978 29.4067 122.196 30.1442 120.137 30.1442C118.047 30.1442 116.28 29.4067 114.805 27.9468C113.33 26.4717 112.592 24.6892 112.592 22.6147C112.592 20.5556 113.33 18.7731 114.805 17.2826C116.264 15.8074 118.047 15.0545 120.137 15.0545ZM135.227 30.2825H135.119C133.828 30.2825 132.891 29.8984 132.046 29.1762L129.526 33.5402C131.139 34.6773 132.998 35.2459 135.088 35.2612H135.257C137.962 35.2305 140.267 34.2624 142.203 32.3724C144.154 30.4516 145.138 28.1005 145.138 25.3192V20.2329L145.046 10.2448L140.067 10.2295L140.159 20.3098V25.2885C140.159 27.9622 137.962 30.2825 135.227 30.2825ZM148.211 10.168V35.0307H163.147V30.0828H153.19V25.0887H160.658V20.1254H153.19V15.1313H163.147V10.168H148.211ZM185.828 31.5272L182.278 27.9776C180.803 29.4528 179.021 30.1903 176.931 30.1903C174.856 30.1903 173.089 29.4528 171.629 27.9929C170.154 26.5178 169.417 24.7353 169.417 22.6608C169.417 20.6017 170.154 18.8192 171.629 17.3287C173.074 15.8535 174.856 15.116 176.946 15.116C179.005 15.116 180.772 15.8535 182.278 17.3287L185.828 13.7791C183.769 11.7968 180.726 10.1065 176.915 10.1065L176.931 10.0297C173.489 10.0297 170.523 11.2744 168.064 13.733C165.606 16.2223 164.377 19.188 164.377 22.6301C164.377 26.1029 165.606 29.0532 168.064 31.5118C170.508 33.9397 173.458 35.169 176.915 35.169C180.788 35.169 183.8 33.5402 185.828 31.5272ZM187.088 10.2295V15.1621H193.188V35H198.182V15.1621H204.268V10.2295H187.088Z" fill="white"/>
<path d="M26.6008 41.4427C23.1434 41.4427 20.1777 42.6874 17.7191 45.146C15.2605 47.6354 14.0312 50.6011 14.0312 54.0431C14.0312 57.5159 15.2605 60.4663 17.7191 62.9249C20.1623 65.3528 23.128 66.5821 26.6008 66.5821C30.0583 66.5821 33.024 65.3681 35.4826 62.9249C37.9412 60.4816 39.1859 57.5159 39.1859 54.0431C39.1859 50.5857 37.9412 47.62 35.4826 45.146C33.0086 42.6874 30.0429 41.4427 26.6008 41.4427ZM26.5855 46.4675C28.6599 46.4675 30.427 47.2051 31.9022 48.6803C33.3927 50.1708 34.1303 51.9533 34.1303 54.0278C34.1303 56.1176 33.3927 57.8847 31.9022 59.3599C30.427 60.8197 28.6445 61.5573 26.5855 61.5573C24.4956 61.5573 22.7285 60.8197 21.2533 59.3599C19.7782 57.8847 19.0406 56.1022 19.0406 54.0278C19.0406 51.9687 19.7782 50.1862 21.2533 48.6957C22.7131 47.2205 24.4956 46.4675 26.5855 46.4675ZM41.3218 66.4131H46.3005V55.4569L53.4151 66.4131H59.5002L53.7378 57.4391C55.1515 56.8859 55.843 56.3788 56.7035 55.1495C57.7484 53.6744 58.2709 52.107 58.2709 50.4321V49.7867C58.2709 47.0515 57.395 45.6839 55.8891 44.1626C54.3832 42.6874 52.1551 41.6425 49.4045 41.6425H41.3218V66.4131ZM49.8808 53.4285H48.2213V53.4131H46.3005V46.5751H49.0972C50.2957 46.5751 51.5097 46.9439 52.1704 47.5586C52.8158 48.25 53.1539 49.0491 53.1539 49.9557C53.1539 51.8304 51.6941 53.4285 49.8808 53.4285ZM73.2991 41.4427C69.8264 41.4427 66.8606 42.6874 64.4328 45.146C61.9741 47.6354 60.7448 50.6011 60.7448 54.0431C60.7448 57.5313 61.9741 60.497 64.4328 62.9403C66.8606 65.3835 69.811 66.6128 73.2991 66.6128C76.7412 66.6128 79.7069 65.3835 82.1809 62.9403C84.6241 60.497 86.1454 57.1472 85.792 52.5219H73.0686V57.2701H80.1372C79.0462 59.5904 76.5568 61.6034 73.3452 61.6034C71.2554 61.6034 69.4729 60.8658 68.0285 59.3906C66.5533 57.9155 65.8157 56.133 65.8157 54.0585C65.8157 51.9687 66.5533 50.2016 68.0285 48.7264C69.4883 47.2359 71.2554 46.4983 73.3452 46.4983C75.3736 46.4983 77.1561 47.2359 78.662 48.7264L82.2116 45.1768C80.1833 43.1791 77.1254 41.5042 73.3145 41.5042L73.2991 41.4427ZM84.7471 66.4131H90.1253L91.8002 62.6483H100.282L101.957 66.4131H107.351L96.0413 41.1354L84.7471 66.4131ZM93.7671 58.2535L96.0567 53.0136L98.3156 58.2535H93.7671ZM109.518 41.1201V66.4438H114.496V52.6909L129.432 66.9201V41.581H124.438V55.3339L109.518 41.1201ZM132.506 66.4131H137.484V41.6425H132.506V66.4131ZM139.636 41.6425V46.5751H149.163L139.636 66.4131H157.061V61.4651H147.534L157.061 41.6425H139.636ZM159.212 41.581V66.4438H174.148V61.4958H164.191V56.5018H171.659V51.5384H164.191V46.5444H174.148V41.581H159.212ZM176.3 66.4131H181.278V55.4569L188.393 66.4131H194.478L188.716 57.4391C190.129 56.8859 190.821 56.3788 191.681 55.1495C192.726 53.6744 193.249 52.107 193.249 50.4321V49.7867C193.249 47.0515 192.373 45.6839 190.867 44.1626C189.361 42.6874 187.133 41.6425 184.382 41.6425H176.3V66.4131ZM184.859 53.4285H183.199V53.4131H181.278V46.5751H184.075C185.274 46.5751 186.488 46.9439 187.148 47.5586C187.794 48.25 188.132 49.0491 188.132 49.9557C188.132 51.8304 186.672 53.4285 184.859 53.4285Z" fill="white"/>
</svg>
